<svg width="29.939999999999998" height="29.939999999999998" xmlns="http://www.w3.org/2000/svg">

 <g>
  <title>background</title>
  <rect fill="none" id="canvas_background" height="514" width="514" y="-1" x="-1"/>
 </g>
 <g>
  <title>Layer 1</title>
  <g id="svg_1">
   <path fill="#eeb71e" id="svg_2" d="m27.56,0.684l-25.177,0c-1.318,0 -2.383,1.064 -2.383,2.38l0,23.813c0,1.312 1.065,2.379 2.383,2.379l25.177,0c1.312,0 2.38,-1.066 2.38,-2.379l0,-23.813c-0.001,-1.316 -1.069,-2.38 -2.38,-2.38zm-7.435,8.483c-0.619,-0.362 -1.11,-0.648 -1.727,-0.648c-0.604,0 -1.12,0.151 -1.384,0.405c-0.264,0.252 -0.395,0.74 -0.395,1.461l0,1.067l3.229,0l-0.699,2.968l-2.53,0l0,9.862l-4.056,0l0,-9.862l-1.893,0l0,-2.968l1.895,0l0,-1.133c0,-1.193 0.143,-1.907 0.425,-2.496c0.281,-0.587 0.826,-1.241 1.584,-1.611c0.757,-0.369 1.877,-0.555 3.036,-0.555c1.188,0 2.116,0.396 3.254,0.715l-0.739,2.795z"/>
   <g id="svg_3"/>
   <g id="svg_4"/>
   <g id="svg_5"/>
   <g id="svg_6"/>
   <g id="svg_7"/>
   <g id="svg_8"/>
   <g id="svg_9"/>
   <g id="svg_10"/>
   <g id="svg_11"/>
   <g id="svg_12"/>
   <g id="svg_13"/>
   <g id="svg_14"/>
   <g id="svg_15"/>
   <g id="svg_16"/>
   <g id="svg_17"/>
  </g>
  <g id="svg_18"/>
  <g id="svg_19"/>
  <g id="svg_20"/>
  <g id="svg_21"/>
  <g id="svg_22"/>
  <g id="svg_23"/>
  <g id="svg_24"/>
  <g id="svg_25"/>
  <g id="svg_26"/>
  <g id="svg_27"/>
  <g id="svg_28"/>
  <g id="svg_29"/>
  <g id="svg_30"/>
  <g id="svg_31"/>
  <g id="svg_32"/>
 </g>
</svg>