<svg width="512" height="512" xmlns="http://www.w3.org/2000/svg">

 <g>
  <title>background</title>
  <rect fill="none" id="canvas_background" height="514" width="514" y="-1" x="-1"/>
 </g>
 <g>
  <title>Layer 1</title>
  <rect id="svg_1" fill="#eeb71e" rx="15%" height="512" width="512"/>
  <path id="svg_2" d="m335,499c14,0 12,17 12,17l-182,0s-2,-17 12,-17c13,0 16,-6 16,-12l-1,-50c-71,16 -86,-28 -86,-28c-12,-30 -28,-37 -28,-37c-24,-16 1,-16 1,-16c26,2 40,26 40,26c22,39 59,28 74,22c2,-17 9,-28 16,-35c-57,-6 -116,-28 -116,-126c0,-28 10,-51 26,-69c-3,-6 -11,-32 3,-67c0,0 21,-7 70,26c42,-12 86,-12 128,0c49,-33 70,-26 70,-26c14,35 6,61 3,67c16,18 26,41 26,69c0,98 -60,120 -117,126c10,8 18,24 18,48l-1,70c0,6 3,12 16,12z" fill="#fff"/>
 </g>
</svg>