<svg width="940" height="492" xmlns="http://www.w3.org/2000/svg" preserveAspectRatio="xMidYMid meet">

 <g>
  <title>background</title>
  <rect fill="none" id="canvas_background" height="514" width="514" y="-1" x="-1"/>
 </g>
 <g>
  <title>Layer 1</title>
  <g id="svg_1" fill="#000000" transform="translate(0,492) scale(0.10000000149011612,-0.10000000149011612) ">
   <path stroke="null" fill="#eeb71e" id="svg_2" d="m23.000147,2453.999987l0,-2446.000013l4683.499926,0l4683.499926,0l0,2446.000013l0,2446.000013l-4683.499926,0l-4683.499926,0l0,-2446.000013zm5485.67385,1426.833341c177.375104,-46.732521 264.069677,-128.265854 309.908187,-291.332522c13.950851,-50.709756 14.94734,-64.630082 4.982447,-71.590244c-6.975425,-3.977236 -85.698084,-10.937398 -174.385636,-13.920325c-87.691062,-3.977236 -167.41021,-8.948781 -176.378614,-11.931707c-10.961383,-2.982927 -18.933298,6.960163 -27.901702,35.795122c-15.94383,52.698374 -62.778829,105.396749 -106.62436,119.317074c-19.929787,6.960163 -64.771807,9.943089 -100.645424,7.954472c-58.792871,-3.977236 -68.757765,-7.954472 -93.669999,-35.795122c-34.877127,-38.778049 -37.866595,-80.539025 -5.978936,-108.379675c32.884148,-29.829268 34.877127,-30.823577 188.336486,-68.607317c78.722658,-18.89187 171.396168,-43.749594 207.269784,-55.681301c154.455849,-49.715447 257.094251,-125.282928 305.922229,-225.708131c24.912234,-50.709756 27.901702,-65.624391 27.901702,-165.055285c0,-103.408131 -1.992979,-113.35122 -31.887659,-174.998375c-58.792871,-118.322765 -169.403189,-203.833334 -316.883612,-242.611383c-146.483934,-38.778049 -421.514993,-25.852033 -557.037544,25.852033c-74.736701,28.83496 -162.427763,108.379675 -202.287337,184.941464c-34.877127,63.635773 -62.778829,151.13496 -62.778829,191.901627l0,26.846342l112.603296,6.960163c60.78585,2.982927 145.487445,8.948781 187.339997,11.931707l74.736701,5.965854l16.940319,-60.652846c29.89468,-105.396749 106.62436,-160.083741 222.217124,-160.083741c129.543615,0.994309 210.259252,102.413822 153.459359,193.890245c-25.908723,41.760976 -81.712126,67.613008 -212.252231,100.425204c-217.234677,53.692683 -333.823931,104.40244 -410.553611,178.975611c-67.761276,64.630082 -87.691062,112.356911 -92.673509,219.742278c-3.985957,85.51057 -1.992979,95.453659 25.908723,156.106505c62.778829,134.231708 185.347018,209.799188 380.65893,234.656912c89.684041,11.931707 282.006485,2.982927 353.753718,-14.914634zm-3794.63143,-27.840651c97.655956,-32.812195 186.343508,-123.29431 214.245209,-218.747969c16.940319,-60.652846 13.950851,-181.958538 -5.978936,-242.611383c-33.880638,-102.413822 -120.575211,-184.941464 -229.19255,-218.747969c-53.810425,-17.897561 -72.743722,-32.812195 -38.863084,-32.812195c34.877127,0 99.648935,-50.709756 148.476913,-116.334147c38.863084,-51.704065 243.1434,-427.552848 243.1434,-446.444718c0,-1.988618 -100.645424,-3.977236 -223.213614,-3.977236c-166.413721,0 -225.206592,2.982927 -232.182018,12.926016c-5.978936,5.965854 -60.78585,106.391057 -122.56819,220.736587c-61.782339,115.339838 -123.564679,222.725204 -136.51904,239.628457c-27.901702,36.789431 -61.782339,52.698374 -117.585743,56.67561l-39.859574,1.988618l-2.989468,-266.474798l-1.992979,-265.480489l-202.287337,1.988618l-201.290848,2.982927l-2.989468,649.283743l-1.992979,649.283743l450.413184,-2.982927c395.60627,-2.982927 457.38861,-5.965854 503.22712,-20.880488zm-300.939783,-1508.366675c239.157443,-33.806504 349.76776,-131.248781 397.599249,-349.002441c4.982447,-24.857724 2.989468,-26.846342 -41.852553,-31.817886c-25.908723,-3.977236 -111.606807,-8.948781 -191.325954,-12.926016l-144.490955,-6.960163l-11.957872,44.743903c-15.94383,58.664228 -64.771807,101.419513 -131.536594,116.334147c-84.701594,17.897561 -162.427763,-7.954472 -184.350529,-60.652846c-31.887659,-73.578862 8.968404,-104.40244 201.290848,-151.13496c259.08723,-62.641464 356.743186,-103.408131 440.448291,-180.964229c193.318933,-179.96992 117.585743,-526.983743 -140.504998,-644.312199c-105.627871,-48.721138 -170.399678,-59.658537 -342.792335,-58.664228c-169.403189,0.994309 -266.062655,17.897561 -361.725633,63.635773c-59.789361,29.829268 -136.51904,110.368293 -171.396168,181.958538c-25.908723,52.698374 -65.768297,191.901627 -57.796382,199.856099c3.985957,3.977236 306.918719,24.857724 351.760739,24.857724c29.89468,0 32.884148,-2.982927 39.859574,-36.789431c20.926276,-114.345529 105.627871,-181.958538 226.203082,-181.958538c59.789361,0 103.634892,17.897561 142.497976,58.664228c23.915744,25.852033 29.89468,40.766667 29.89468,75.56748c0,34.800813 -5.978936,49.715447 -29.89468,75.56748c-38.863084,40.766667 -66.764786,51.704065 -248.125847,99.430895c-248.125847,64.630082 -375.676483,141.191871 -434.469355,262.497562c-35.873616,73.578862 -34.877127,196.873172 1.992979,275.423579c62.778829,135.226017 195.311912,217.75366 386.637866,239.628457c70.750744,7.954472 206.273295,5.965854 274.03457,-2.982927zm1594.382954,-14.914634c158.441806,-40.766667 272.041591,-136.220326 346.778292,-290.338213c21.922766,-45.738212 37.866595,-85.51057 34.877127,-87.499187c-2.989468,-2.982927 -75.73319,-20.880488 -163.424253,-39.772358c-86.694573,-19.886179 -165.417231,-37.78374 -173.389146,-39.772358c-10.961383,-3.977236 -19.929787,5.965854 -28.898191,30.823577c-16.940319,47.72683 -64.771807,100.425204 -114.596275,125.282928c-57.796382,28.83496 -156.448827,28.83496 -219.227656,-0.994309c-103.634892,-50.709756 -147.480423,-155.112196 -146.483934,-349.002441c0,-198.86179 36.870106,-295.309758 130.540104,-345.025205c38.863084,-20.880488 55.803403,-23.863415 124.561168,-20.880488c50.820957,1.988618 93.669999,9.943089 117.585743,21.874797c45.83851,22.869106 91.67702,86.504879 118.582232,166.049594c11.957872,34.800813 24.912234,57.669919 31.887659,55.681301c5.978936,-1.988618 83.705105,-25.852033 173.389146,-51.704065c99.648935,-29.829268 161.431274,-52.698374 161.431274,-60.652846c0,-6.960163 -9.964893,-41.760976 -22.919255,-76.561789c-66.764786,-181.958538 -186.343508,-293.32114 -367.704569,-342.042278c-84.701594,-22.869106 -312.897655,-22.869106 -416.532547,0c-148.476913,32.812195 -259.08723,108.379675 -342.792335,233.662603c-87.691062,132.24309 -121.5717,275.423579 -112.603296,469.313824c6.975425,139.203253 25.908723,220.736587 73.740212,317.184555c80.715637,162.072359 236.167975,266.474798 446.427227,300.281302c72.743722,11.931707 279.017017,1.988618 348.771271,-15.908943zm3117.018674,-3.977236c42.849042,-10.937398 105.627871,-34.800813 139.508508,-52.698374c59.789361,-31.817886 160.434785,-122.300001 201.290848,-180.964229l19.929787,-28.83496l42.849042,56.67561c108.617339,142.18618 269.052123,217.75366 495.255205,230.679676c306.918719,18.89187 563.016481,-107.385366 658.679458,-324.144717c9.964893,-21.874797 19.929787,-39.772358 22.919255,-39.772358c2.989468,0 5.978936,77.556098 5.978936,171.021139l0,172.015448l202.287337,2.982927l201.290848,1.988618l0,-492.18293l0,-492.18293l313.894144,0l313.894144,0l-1.992979,-159.089432l-2.989468,-159.089432l-513.192013,0l-513.192013,0l0,174.004066c0,95.453659 -1.992979,174.004066 -4.982447,173.009757c-2.989468,0 -18.933298,-30.823577 -36.870106,-67.613008c-99.648935,-207.81057 -350.76425,-327.127644 -646.721586,-305.252847c-237.164464,17.897561 -392.616802,91.476423 -493.262226,233.662603l-41.852553,58.664228l-42.849042,-57.669919c-76.72968,-104.40244 -182.35755,-173.009757 -320.869569,-210.793497c-110.610317,-29.829268 -341.795846,-29.829268 -455.395631,0.994309c-123.564679,32.812195 -180.364572,65.624391 -264.069677,149.146342c-85.698084,85.51057 -127.550636,158.095123 -160.434785,274.42927c-31.887659,111.362602 -31.887659,331.10488 -0.996489,445.450409c66.764786,244.600001 248.125847,403.689433 505.220098,444.4561c91.67702,13.920325 286.988932,3.977236 376.672973,-18.89187zm-2005.933054,-219.742278l0,-228.691058l219.227656,0l219.227656,0l1.992979,226.70244l2.989468,225.708131l202.287337,2.982927l201.290848,1.988618l-1.992979,-651.272361l-2.989468,-652.26667l-199.297869,0l-199.297869,0l-2.989468,264.48618l-1.992979,263.491871l-217.234677,-1.988618l-216.238188,-2.982927l-4.982447,-261.503253l-4.982447,-261.503253l-197.304891,-1.988618l-196.308401,-1.988618l0,654.255288l0,653.260979l199.297869,0l199.297869,0l0,-228.691058z"/>
   <path stroke="null" fill="#eeb71e" id="svg_3" d="m1168.962895,3483.109748l0,-134.231708l89.684041,0c148.476913,0 236.167975,25.852033 264.069677,79.544716c35.873616,68.607317 1.992979,154.117887 -69.754254,174.998375c-21.922766,6.960163 -94.666488,12.926016 -161.431274,12.926016l-122.56819,0.994309l0,-134.231708z"/>
   <path stroke="null" fill="#eeb71e" id="svg_4" d="m5792.673461,2033.407301c-49.824467,-15.908943 -122.56819,-92.470732 -144.490955,-151.13496c-10.961383,-32.812195 -18.933298,-90.482114 -21.922766,-167.043903c-7.971915,-178.975611 15.94383,-273.434961 88.687552,-342.042278c47.831489,-45.738212 95.662977,-62.641464 180.364572,-62.641464c59.789361,0 82.708616,4.971545 127.550636,27.840651c106.62436,53.692683 142.497976,150.140651 136.51904,368.88862c-2.989468,115.339838 -6.975425,143.180489 -26.905212,187.924391c-27.901702,61.647155 -92.673509,122.300001 -148.476913,139.203253c-47.831489,14.914634 -144.490955,13.920325 -191.325954,-0.994309z"/>
   <path stroke="null" fill="#eeb71e" id="svg_5" d="m6973.513336,2031.418684c-60.78585,-20.880488 -127.550636,-98.436586 -150.469891,-174.998375c-23.915744,-84.516261 -24.912234,-277.412197 -0.996489,-357.951221c37.866595,-126.277236 122.56819,-187.924391 255.101273,-187.924391c91.67702,0 140.504998,19.886179 192.322444,77.556098c56.799893,62.641464 72.743722,128.265854 72.743722,300.281302c0,141.191871 -0.996489,145.169106 -30.89117,209.799188c-48.827978,101.419513 -121.5717,147.157724 -238.160954,147.157724c-32.884148,0 -77.726169,-5.965854 -99.648935,-13.920325z"/>
  </g>
 </g>
</svg>